HIERARCHY
ROOT Hips
{
    OFFSET 0.000 93.594 0.000
    CHANNELS 6 Xposition Yposition Zposition Yrotation Xrotation Zrotation
    JOINT RightHip
    {
        OFFSET -9.500 -1.594 0.000
        CHANNELS 3 Yrotation Xrotation Zrotation
        JOINT RightKnee
        {
            OFFSET 0.000 -42.000 0.000
            CHANNELS 3 Yrotation Xrotation Zrotation
            JOINT RightAnkle
            {
                OFFSET 0.000 -42.000 0.000
                CHANNELS 3 Yrotation Xrotation Zrotation
                End Site
                {
                    OFFSET 0.000 -8.000 17.500
                }
            }
        }
    }
    JOINT LeftHip
    {
        OFFSET 9.500 -1.594 0.000
        CHANNELS 3 Yrotation Xrotation Zrotation
        JOINT LeftKnee
        {
            OFFSET 0.000 -42.000 0.000
            CHANNELS 3 Yrotation Xrotation Zrotation
            JOINT LeftAnkle
            {
                OFFSET 0.000 -42.000 0.000
                CHANNELS 3 Yrotation Xrotation Zrotation
                End Site
                {
                    OFFSET 0.000 -8.000 17.500
                }
            }
        }
    }
    JOINT Chest
    {
        OFFSET 0.000 14.348 0.000
        CHANNELS 3 Yrotation Xrotation Zrotation
        JOINT Chest2
        {
            OFFSET 0.000 9.746 0.000
            CHANNELS 3 Yrotation Xrotation Zrotation
            JOINT Chest3
            {
                OFFSET 0.000 10.149 0.000
                CHANNELS 3 Yrotation Xrotation Zrotation
                JOINT Chest4
                {
                    OFFSET 0.000 9.746 0.000
                    CHANNELS 3 Yrotation Xrotation Zrotation
                    JOINT Neck
                    {
                        OFFSET 0.000 10.417 0.000
                        CHANNELS 3 Yrotation Xrotation Zrotation
                        JOINT Head
                        {
                            OFFSET 0.000 9.000 0.000
                            CHANNELS 3 Yrotation Xrotation Zrotation
                            End Site
                            {
                                OFFSET 0.000 16.000 0.000
                            }
                        }
                    }
                    JOINT RightCollar
                    {
                        OFFSET -3.200 6.945 0.000
                        CHANNELS 3 Yrotation Xrotation Zrotation
                        JOINT RightShoulder
                        {
                            OFFSET -12.800 0.000 0.000
                            CHANNELS 3 Yrotation Xrotation Zrotation
                            JOINT RightElbow
                            {
OFFSET -0 -27 0.000
						CHANNELS 3 Xrotation Yrotation Zrotation
                                JOINT RightWrist
                                {
OFFSET -0 -26 0.000
						CHANNELS 3 Xrotation Yrotation Zrotation
                                    JOINT RightFinger0
                                    {
OFFSET -0.196 -2.56 3.210
						CHANNELS 3 Xrotation Yrotation Zrotation
                                        JOINT RightFinger01
                                        {
OFFSET -0 -3.788 0.000
						CHANNELS 3 Xrotation Yrotation Zrotation
                                            JOINT RightFinger0Nub
                                            {
OFFSET -0 -2.631 0.000
						CHANNELS 3 Xrotation Yrotation Zrotation
                                                End Site
                                                {
OFFSET 0 -2.256 0
                                                }
                                            }
                                        }
                                    }
                                    JOINT RightFinger1
                                    {
OFFSET -0.523 -3.316 2.035
						CHANNELS 3 Xrotation Yrotation Zrotation
                                        JOINT RightFinger11
                                        {
OFFSET 0.094 -5.366 1.028
						CHANNELS 3 Xrotation Yrotation Zrotation
                                            JOINT RightFinger12
                                            {
OFFSET -0 -3.723 0.000
						CHANNELS 3 Xrotation Yrotation Zrotation
                                                JOINT RightFinger1Nub
                                                {
OFFSET -0 -2.111 0.000
						CHANNELS 3 Xrotation Yrotation Zrotation
                                                    End Site
                                                    {
OFFSET 0 -1.857 0
                                                    }
                                                }
                                            }
                                        }
                                    }
                                    JOINT RightFinger2
                                    {
OFFSET -0.532 -3.479 0.778
						CHANNELS 3 Xrotation Yrotation Zrotation
                                        JOINT RightFinger21
                                        {
OFFSET 0.086 -5.322 0.323
						CHANNELS 3 Xrotation Yrotation Zrotation
                                            JOINT RightFinger22
                                            {
OFFSET -0 -4.062 0.000
						CHANNELS 3 Xrotation Yrotation Zrotation
                                                JOINT RightFinger2Nub
                                                {
OFFSET -0 -2.547 0.000
						CHANNELS 3 Xrotation Yrotation Zrotation
                                                    End Site
                                                    {
OFFSET 0 -2.031 0
                                                    }
                                                }
                                            }
                                        }
                                    }
                                    JOINT RightFinger3
                                    {
OFFSET -0.553 -3.461 -0.133
						CHANNELS 3 Xrotation Yrotation Zrotation
                                        JOINT RightFinger31
                                        {
OFFSET 0.023 -4.767 -0.493
						CHANNELS 3 Xrotation Yrotation Zrotation
                                            JOINT RightFinger32
                                            {
OFFSET -0 -3.541 0.000
						CHANNELS 3 Xrotation Yrotation Zrotation
                                                JOINT RightFinger3Nub
                                                {
OFFSET -0 -2.456 0.000
						CHANNELS 3 Xrotation Yrotation Zrotation
                                                    End Site
                                                    {
OFFSET 0 -1.91 0
                                                    }
                                                }
                                            }
                                        }
                                    }
                                    JOINT RightFinger4
                                    {
OFFSET -0.483 -3.251 -1.236
						CHANNELS 3 Xrotation Yrotation Zrotation
                                        JOINT RightFinger41
                                        {
OFFSET 0.023 -4.259 -1.122
						CHANNELS 3 Xrotation Yrotation Zrotation
                                            JOINT RightFinger42
                                            {
OFFSET -0 -2.835 0.000
						CHANNELS 3 Xrotation Yrotation Zrotation
                                                JOINT RightFinger4Nub
                                                {
OFFSET -0 -1.792 0.000
						CHANNELS 3 Xrotation Yrotation Zrotation
                                                    End Site
                                                    {
OFFSET 0 -1.692 0
                                                    }
                                                }
                                            }
                                        }
                                    }
                                }
                            }
                        }
                    }
                    JOINT LeftCollar
                    {
                        OFFSET 3.200 6.945 0.000
                        CHANNELS 3 Yrotation Xrotation Zrotation
                        JOINT LeftShoulder
                        {
                            OFFSET 12.800 0.000 0.000
                            CHANNELS 3 Yrotation Xrotation Zrotation
                            JOINT LeftElbow
                            {
OFFSET -0 -27 0.000
						CHANNELS 3 Xrotation Yrotation Zrotation
                                JOINT LeftWrist
                                {
OFFSET -0 -26 0.000
						CHANNELS 3 Xrotation Yrotation Zrotation
                                    JOINT LeftFinger0
                                    {
OFFSET -0.196 -2.56 3.210
						CHANNELS 3 Xrotation Yrotation Zrotation
                                        JOINT LeftFinger01
                                        {
OFFSET -0 -3.788 0.000
						CHANNELS 3 Xrotation Yrotation Zrotation
                                            JOINT LeftFinger0Nub
                                            {
OFFSET -0 -2.631 0.000
						CHANNELS 3 Xrotation Yrotation Zrotation
                                                End Site
                                                {
OFFSET 0 -2.256 0
                                                }
                                            }
                                        }
                                    }
                                    JOINT LeftFinger1
                                    {
OFFSET -0.523 -3.316 2.035
						CHANNELS 3 Xrotation Yrotation Zrotation
                                        JOINT LeftFinger11
                                        {
OFFSET 0.094 -5.366 1.028
						CHANNELS 3 Xrotation Yrotation Zrotation
                                            JOINT LeftFinger12
                                            {
OFFSET -0 -3.723 0.000
						CHANNELS 3 Xrotation Yrotation Zrotation
                                                JOINT LeftFinger1Nub
                                                {
OFFSET -0 -2.111 0.000
						CHANNELS 3 Xrotation Yrotation Zrotation
                                                    End Site
                                                    {
OFFSET 0 -1.857 0
                                                    }
                                                }
                                            }
                                        }
                                    }
                                    JOINT LeftFinger2
                                    {
OFFSET -0.532 -3.479 0.778
						CHANNELS 3 Xrotation Yrotation Zrotation
                                        JOINT LeftFinger21
                                        {
OFFSET 0.086 -5.322 0.323
						CHANNELS 3 Xrotation Yrotation Zrotation
                                            JOINT LeftFinger22
                                            {
OFFSET -0 -4.062 0.000
						CHANNELS 3 Xrotation Yrotation Zrotation
                                                JOINT LeftFinger2Nub
                                                {
OFFSET -0 -2.547 0.000
						CHANNELS 3 Xrotation Yrotation Zrotation
                                                    End Site
                                                    {
OFFSET 0 -2.031 0
                                                    }
                                                }
                                            }
                                        }
                                    }
                                    JOINT LeftFinger3
                                    {
OFFSET -0.553 -3.461 -0.133
						CHANNELS 3 Xrotation Yrotation Zrotation
                                        JOINT LeftFinger31
                                        {
OFFSET 0.023 -4.767 -0.493
						CHANNELS 3 Xrotation Yrotation Zrotation
                                            JOINT LeftFinger32
                                            {
OFFSET -0 -3.541 0.000
						CHANNELS 3 Xrotation Yrotation Zrotation
                                                JOINT LeftFinger3Nub
                                                {
OFFSET -0 -2.456 0.000
						CHANNELS 3 Xrotation Yrotation Zrotation
                                                    End Site
                                                    {
OFFSET 0 -1.91 0
                                                    }
                                                }
                                            }
                                        }
                                    }
                                    JOINT LeftFinger4
                                    {
OFFSET -0.483 -3.251 -1.236
						CHANNELS 3 Xrotation Yrotation Zrotation
                                        JOINT LeftFinger41
                                        {
OFFSET 0.023 -4.259 -1.122
						CHANNELS 3 Xrotation Yrotation Zrotation
                                            JOINT LeftFinger42
                                            {
OFFSET -0 -2.835 0.000
						CHANNELS 3 Xrotation Yrotation Zrotation
                                                JOINT LeftFinger4Nub
                                                {
OFFSET -0 -1.792 0.000
						CHANNELS 3 Xrotation Yrotation Zrotation
                                                    End Site
                                                    {
OFFSET 0 -1.692 0
                                                    }
                                                }
                                            }
                                        }
                                    }
                                }
                            }
                        }
                    }
                }
            }
        }
    }
}
MOTION

Frames: 11
Frame Time: 0.017
-147.13 90.96 -30.49 147.65 -11.28 -7.36 -8.17 -9.10 3.99 0.00 28.17 0.00 -13.06 -4.32 5.84 -4.07 8.01 10.69 -0.00 49.04 -0.00 10.45 -5.80 -2.17 -12.26 14.54 8.91 -2.87 4.06 2.49 -4.11 7.04 3.97 0.26 -0.74 0.68 0.25 -0.74 0.68 1.62 -13.92 12.33 16.92 10.26 -12.83 -2.43 -51.76 -42.89 -21.39 -8.54 21.24 -3.55 10.86 14.25 -51.01 -0 24.31 8.51 -0 -5.51 23.64 -0 0.00 0 -0 0.00 -15 -0 17.67 0 -0 14.48 0 -0 7.24 0 -0 0.00 0 -0 17.80 0 -0 17.80 0 -0 17.80 0 -0 0.00 15 -0 20.24 0 -0 20.24 0 -0 20.24 0 -0 0.00 25 -0 21.79 0 -0 21.79 0 -0 21.79 -13.69 11.60 6.42 -21.29 -57.88 34.62 -21.24 16.23 -14.35 12.52 3.29 -23.67 -13.06 0 -32.39 -16.08 0 11.83 26.48 0 0.00 0.00 0 0.00 -15.00 0 -4.60 0.00 0 12.73 0.00 0 6.36 0.00 0 0.00 0.00 0 -7.06 0.00 0 -7.06 0.00 0 -7.06 0.00 0 0.00 15.00 0 -7.05 0.00 0 -7.05 0.00 0 -7.05 0.00 0 0.00 25.00 0 -14.00 0.00 0 -14.00 0.00 0 -14.00 
-147.27 90.86 -30.31 147.83 -11.81 -8.03 -8.60 -8.49 4.49 -0.00 27.98 -0.00 -12.82 -4.16 5.99 -2.99 8.35 11.20 0.00 48.55 0.00 11.22 -6.47 -0.68 -12.20 14.30 9.02 -2.86 3.99 2.51 -4.09 6.92 4.01 0.24 -0.70 0.66 0.24 -0.70 0.67 1.53 -13.13 12.09 17.13 10.53 -12.11 -3.45 -50.40 -43.57 -21.59 -8.53 21.89 -4.31 10.54 14.83 -50.8 -0 24.58 8.95 -0 -5.24 23.66 -0 0.00 0 -0 0.00 -15 -0 18.39 0 -0 14.16 0 -0 7.08 0 -0 0.00 0 -0 18.00 0 -0 18.00 0 -0 18.00 0 -0 0.00 15 -0 20.02 0 -0 20.02 0 -0 20.02 0 -0 0.00 25 -0 19.63 0 -0 19.63 0 -0 19.63 -13.87 11.81 5.68 -20.58 -57.49 34.06 -21.29 14.83 -14.85 12.53 4.27 -23.15 -12.99 0 -33.12 -15.94 0 11.09 26.27 0 0.00 0.00 0 0.00 -15.00 0 -4.57 0.00 0 11.00 0.00 0 5.50 0.00 0 0.00 0.00 0 -7.75 0.00 0 -7.75 0.00 0 -7.75 0.00 0 0.00 15.00 0 -7.97 0.00 0 -7.97 0.00 0 -7.97 0.00 0 0.00 25.00 0 -14.24 0.00 0 -14.24 0.00 0 -14.24 
-147.44 90.75 -30.08 148.09 -12.41 -8.68 -8.96 -7.83 4.96 0.00 27.78 0.00 -12.68 -3.96 6.13 -2.02 8.92 11.70 -0.00 47.84 -0.00 12.37 -7.37 0.74 -12.29 14.23 8.96 -2.88 3.97 2.50 -4.13 6.90 3.99 0.24 -0.66 0.66 0.24 -0.67 0.66 1.71 -12.50 11.94 17.33 10.49 -11.49 -4.89 -49.25 -43.64 -21.74 -8.37 22.71 -5.02 10.47 15.40 -50.68 -0 24.61 9.18 -0 -5.21 23.74 -0 0.00 0 -0 0.00 -15 -0 18.91 0 -0 14.03 0 -0 7.02 0 -0 0.00 0 -0 18.04 0 -0 18.04 0 -0 18.04 0 -0 0.00 15 -0 19.82 0 -0 19.82 0 -0 19.82 0 -0 0.00 25 -0 19.34 0 -0 19.34 0 -0 19.34 -13.81 11.83 5.14 -20.47 -57.06 33.98 -21.28 13.59 -15.30 12.58 4.57 -22.96 -12.95 0 -33.48 -15.86 0 10.74 26.07 0 0.00 0.00 0 0.00 -15.00 0 -4.56 0.00 0 9.72 0.00 0 4.86 0.00 0 0.00 0.00 0 -8.13 0.00 0 -8.13 0.00 0 -8.13 0.00 0 0.00 15.00 0 -8.52 0.00 0 -8.52 0.00 0 -8.52 0.00 0 0.00 25.00 0 -14.26 0.00 0 -14.26 0.00 0 -14.26 
-147.67 90.63 -29.87 148.45 -12.98 -9.29 -9.24 -7.22 5.35 0.00 27.58 -0.00 -12.69 -3.73 6.28 0.58 10.89 12.54 0.00 43.84 -0.00 17.50 -11.60 0.67 -12.51 14.14 8.77 -2.94 3.95 2.45 -4.23 6.87 3.91 0.25 -0.61 0.65 0.25 -0.62 0.65 2.11 -11.67 11.74 17.53 10.11 -11.11 -6.52 -47.89 -43.29 -21.5 -8.62 23.81 -4.88 11.48 16.35 -50.97 -0 23.93 8.6 -0 -5.89 24.13 -0 0.00 0 -0 0.00 -15 -0 18.34 0 -0 14.17 0 -0 7.09 0 -0 0.00 0 -0 17.45 0 -0 17.45 0 -0 17.45 0 -0 0.00 15 -0 19.46 0 -0 19.46 0 -0 19.46 0 -0 0.00 25 -0 20.09 0 -0 20.09 0 -0 20.09 -13.66 11.83 4.78 -20.78 -56.49 34.26 -21.32 12.46 -15.61 13.06 2.01 -24.31 -13.22 0 -32.30 -16.39 0 11.91 25.88 0 0.00 0.00 0 0.00 -15.00 0 -4.81 0.00 0 11.39 0.00 0 5.69 0.00 0 0.00 0.00 0 -6.89 0.00 0 -6.89 0.00 0 -6.89 0.00 0 0.00 15.00 0 -6.78 0.00 0 -6.78 0.00 0 -6.78 0.00 0 0.00 25.00 0 -13.27 0.00 0 -13.27 0.00 0 -13.27 
-147.88 90.50 -29.65 148.93 -13.45 -9.91 -9.58 -6.72 5.74 -0.00 27.49 -0.00 -12.75 -3.55 6.41 1.69 11.36 13.21 -0.00 42.93 0.00 19.33 -13.58 -0.71 -12.83 13.85 8.54 -3.02 3.88 2.39 -4.38 6.76 3.82 0.26 -0.54 0.64 0.26 -0.55 0.64 2.57 -10.45 11.45 17.82 9.90 -10.74 -8.17 -46.32 -42.9 -20.95 -9.47 25.03 -4.95 12.67 16.89 -51.21 -0 23.14 8.12 -0 -6.68 24.89 -0 0.00 0 -0 0.00 -15 -0 17.47 0 -0 14.62 0 -0 7.31 0 -0 0.00 0 -0 16.85 0 -0 16.85 0 -0 16.85 0 -0 0.00 15 -0 19.29 0 -0 19.29 0 -0 19.29 0 -0 0.00 25 -0 21.25 0 -0 21.25 0 -0 21.25 -13.55 12.01 4.33 -21.44 -55.74 34.82 -21.47 11.41 -15.69 13.53 1.48 -24.71 -13.20 0 -32.30 -16.37 0 11.91 25.70 0 0.00 0.00 0 0.00 -15.00 0 -4.89 0.00 0 11.08 0.00 0 5.54 0.00 0 0.00 0.00 0 -6.67 0.00 0 -6.67 0.00 0 -6.67 0.00 0 0.00 15.00 0 -6.08 0.00 0 -6.08 0.00 0 -6.08 0.00 0 0.00 25.00 0 -12.94 0.00 0 -12.94 0.00 0 -12.94 
-148.12 90.39 -29.53 149.47 -13.83 -10.56 -9.99 -6.24 6.09 0.00 27.36 0.00 -12.81 -3.39 6.60 3.41 12.03 14.16 0.00 41.26 -0.00 20.69 -15.73 -2.41 -13.05 13.46 8.37 -3.09 3.77 2.35 -4.50 6.60 3.74 0.25 -0.46 0.62 0.25 -0.47 0.62 2.81 -8.97 11.04 17.99 9.84 -10.32 -8.56 -45.26 -42.27 -19.55 -10.49 24.98 -3.4 10.34 15.05 -51.22 -0 24.40 8.1 -0 -5.42 25.63 -0 0.00 0 -0 0.00 -15 -0 18.85 0 -0 15.15 0 -0 7.58 0 -0 0.00 0 -0 18.23 0 -0 18.23 0 -0 18.23 0 -0 0.00 15 -0 20.07 0 -0 20.07 0 -0 20.07 0 -0 0.00 25 -0 20.67 0 -0 20.67 0 -0 20.67 -13.67 12.31 3.79 -22.07 -54.49 35.6 -22.15 10.63 -15.69 13.98 0.84 -25.12 -13.16 0 -32.26 -16.27 0 11.95 25.47 0 0.00 0.00 0 0.00 -15.00 0 -5.15 0.00 0 10.71 0.00 0 5.36 0.00 0 0.00 0.00 0 -6.58 0.00 0 -6.58 0.00 0 -6.58 0.00 0 0.00 15.00 0 -6.02 0.00 0 -6.02 0.00 0 -6.02 0.00 0 0.00 25.00 0 -13.30 0.00 0 -13.30 0.00 0 -13.30 
-148.50 90.30 -29.64 149.99 -14.07 -11.13 -10.39 -5.82 6.18 -0.00 27.19 0.00 -12.78 -3.18 6.92 5.15 12.51 15.14 0.00 39.77 0.00 21.16 -18.16 -3.62 -13.19 13.09 8.19 -3.13 3.67 2.30 -4.59 6.44 3.67 0.24 -0.39 0.59 0.24 -0.40 0.59 2.90 -7.68 10.60 17.98 9.76 -9.97 -8.93 -44.35 -41.6 -18.44 -11.43 24.84 -3.32 10.1 14.72 -51.12 -0 24.41 8.29 -0 -5.41 26.06 -0 0.00 0 -0 0.00 -15 -0 18.96 0 -0 15.46 0 -0 7.73 0 -0 0.00 0 -0 18.46 0 -0 18.46 0 -0 18.46 0 -0 0.00 15 -0 20.36 0 -0 20.36 0 -0 20.36 0 -0 0.00 25 -0 21.06 0 -0 21.06 0 -0 21.06 -13.82 12.50 3.24 -22.82 -53.26 36.5 -22.80 9.96 -15.63 14.34 0.19 -25.50 -13.16 0 -32.19 -16.28 0 12.02 25.19 0 0.00 0.00 0 0.00 -15.00 0 -5.48 0.00 0 10.37 0.00 0 5.19 0.00 0 0.00 0.00 0 -6.57 0.00 0 -6.57 0.00 0 -6.57 0.00 0 0.00 15.00 0 -6.18 0.00 0 -6.18 0.00 0 -6.18 0.00 0 0.00 25.00 0 -13.14 0.00 0 -13.14 0.00 0 -13.14 
-148.84 90.16 -29.36 150.58 -14.25 -11.64 -10.83 -5.80 6.44 0.00 27.30 -0.00 -12.88 -2.94 7.05 6.50 12.60 15.89 0.00 38.71 -0.00 21.12 -20.80 -4.75 -13.30 12.75 8.00 -3.16 3.57 2.25 -4.67 6.28 3.58 0.22 -0.34 0.57 0.22 -0.34 0.57 2.81 -6.69 10.26 17.81 9.71 -9.68 -10.63 -42.90 -41.21 -18.39 -12.54 25.94 -3.32 10.02 14.64 -51.16 -0 24.49 8.22 -0 -5.33 26.57 -0 0.00 0 -0 0.00 -15 -0 19.27 0 -0 15.75 0 -0 7.88 0 -0 0.00 0 -0 18.63 0 -0 18.63 0 -0 18.63 0 -0 0.00 15 -0 20.53 0 -0 20.53 0 -0 20.53 0 -0 0.00 25 -0 21.34 0 -0 21.34 0 -0 21.34 -14.03 12.56 2.64 -23.80 -52.41 37.35 -23.00 9.23 -15.47 14.60 -0.4 -25.75 -13.24 0 -32.07 -16.43 0 12.15 24.96 0 0.00 0.00 0 0.00 -15.00 0 -5.68 0.00 0 10.14 0.00 0 5.07 0.00 0 0.00 0.00 0 -6.57 0.00 0 -6.57 0.00 0 -6.57 0.00 0 0.00 15.00 0 -8.04 0.00 0 -8.04 0.00 0 -8.04 0.00 0 0.00 25.00 0 -12.96 0.00 0 -12.96 0.00 0 -12.96 
-149.26 90.03 -29.13 151.25 -14.41 -12.02 -11.19 -5.76 6.50 0.00 27.32 -0.00 -13.09 -2.62 7.24 7.17 12.76 16.50 -0.00 37.51 -0.00 20.93 -23.03 -6.60 -13.44 12.39 7.72 -3.21 3.47 2.17 -4.77 6.11 3.47 0.20 -0.30 0.55 0.20 -0.30 0.55 2.64 -5.84 9.88 17.64 9.61 -9.40 -12.19 -41.26 -40.78 -18.45 -13.87 26.89 -3.42 10.08 14.58 -51.22 -0 24.57 8.09 -0 -5.25 26.92 -0 0.00 0 -0 0.00 -15 -0 19.71 0 -0 16.26 0 -0 8.13 0 -0 0.00 0 -0 18.81 0 -0 18.81 0 -0 18.81 0 -0 0.00 15 -0 20.64 0 -0 20.64 0 -0 20.64 0 -0 0.00 25 -0 21.77 0 -0 21.77 0 -0 21.77 -14.14 12.89 2.07 -24.69 -51.91 38.03 -23.25 8.28 -15.32 14.80 -0.69 -25.94 -13.27 0 -31.94 -16.50 0 12.28 24.80 0 0.00 0.00 0 0.00 -15.00 0 -5.66 0.00 0 9.94 0.00 0 4.97 0.00 0 0.00 0.00 0 -6.53 0.00 0 -6.53 0.00 0 -6.53 0.00 0 0.00 15.00 0 -8.03 0.00 0 -8.03 0.00 0 -8.03 0.00 0 0.00 25.00 0 -12.85 0.00 0 -12.85 0.00 0 -12.85 
-149.77 89.90 -28.82 151.94 -14.41 -12.23 -11.57 -6.03 6.39 -0.00 27.42 -0.00 -13.31 -2.28 7.46 7.03 13.03 16.66 0.00 36.34 -0.00 20.55 -24.91 -8.14 -13.59 11.90 7.39 -3.25 3.33 2.08 -4.88 5.88 3.32 0.17 -0.25 0.58 0.17 -0.25 0.58 2.18 -5.00 10.51 17.53 9.58 -9.11 -12.61 -40.40 -40.19 -17.51 -15.19 26.85 -3.56 10.03 14.43 -51.19 -0 24.71 8.15 -0 -5.11 27.35 -0 0.00 0 -0 0.00 -15 -0 20.12 0 -0 16.76 0 -0 8.38 0 -0 0.00 0 -0 19.03 0 -0 19.03 0 -0 19.03 0 -0 0.00 15 -0 20.91 0 -0 20.91 0 -0 20.91 0 -0 0.00 25 -0 22.41 0 -0 22.41 0 -0 22.41 -14.25 13.39 1.24 -23.73 -53.58 36.83 -22.68 4.89 -15.62 14.84 -0.8 -26.16 -13.20 0 -31.96 -16.36 0 12.26 24.75 0 0.00 0.00 0 0.00 -15.00 0 -5.53 0.00 0 9.72 0.00 0 4.86 0.00 0 0.00 0.00 0 -6.41 0.00 0 -6.41 0.00 0 -6.41 0.00 0 0.00 15.00 0 -8.13 0.00 0 -8.13 0.00 0 -8.13 0.00 0 0.00 25.00 0 -12.85 0.00 0 -12.85 0.00 0 -12.85 
-150.36 89.79 -28.52 152.57 -14.31 -12.31 -11.99 -6.43 6.12 0.00 27.46 0.00 -13.41 -1.87 7.71 5.92 13.07 16.29 -0.00 35.62 -0.00 20.50 -26.18 -9.78 -13.61 11.37 7.03 -3.27 3.18 1.98 -4.95 5.62 3.16 0.14 -0.21 0.62 0.13 -0.22 0.62 1.61 -4.24 11.14 17.38 9.60 -8.74 -13.10 -39.70 -39.68 -16.44 -16.75 26.91 -3.7 9.97 14.24 -51.23 -0 24.84 8.08 -0 -4.98 27.76 -0 0.00 0 -0 0.00 -15 -0 20.33 0 -0 17.14 0 -0 8.57 0 -0 0.00 0 -0 19.19 0 -0 19.19 0 -0 19.19 0 -0 0.00 15 -0 21.10 0 -0 21.10 0 -0 21.10 0 -0 0.00 25 -0 23.05 0 -0 23.05 0 -0 23.05 -14.39 14.00 0.43 -24.15 -53.74 37.32 -23.21 3.14 -15.83 14.78 -0.85 -26.51 -13.09 0 -32.08 -16.14 0 12.14 24.64 0 0.00 0.00 0 0.00 -15.00 0 -5.22 0.00 0 9.56 0.00 0 4.78 0.00 0 0.00 0.00 0 -6.18 0.00 0 -6.18 0.00 0 -6.18 0.00 0 0.00 15.00 0 -8.22 0.00 0 -8.22 0.00 0 -8.22 0.00 0 0.00 25.00 0 -12.84 0.00 0 -12.84 0.00 0 -12.84 
